<svg id="Layer_1" data-name="Layer 1" xmlns="http://www.w3.org/2000/svg" viewBox="0 0 512 512"><title>chat-sessie</title><g id="chat-sessie"><path id="label" d="M256,0C114.61,0,0,114.64,0,256S114.61,512,256,512,512,397.39,512,256,397.37,0,256,0Z" fill="#84d4f0"/><g id="chat-sessie-2" data-name="chat-sessie"><path d="M223.19,235.27H162.25a5.12,5.12,0,0,1,0-10.24h60.94a5.12,5.12,0,1,1,0,10.24Z" fill="#2c4c76"/><path d="M284.13,263.39H162.25a5.12,5.12,0,0,1,0-10.24H284.13a5.12,5.12,0,0,1,0,10.24Z" fill="#2c4c76"/><path d="M284.13,291.52H162.25a5.12,5.12,0,0,1,0-10.24H284.13a5.12,5.12,0,1,1,0,10.24Z" fill="#2c4c76"/><path d="M368.83,134.71h-160c-12.76,0-23.11,7.34-23.11,20.1v28.7l117.52-.24a23.11,23.11,0,0,1,23.11,23.11v86.45l32.81,36.1V277.34h9.71a23.1,23.1,0,0,0,23.11-23.1v-99.1C391.94,142.37,381.6,134.71,368.83,134.71Z" fill="#fff"/><path d="M359.12,334a5.13,5.13,0,0,1-3.78-1.67l-32.81-36.1a5.12,5.12,0,0,1-1.34-3.45V206.37a18,18,0,0,0-18-18l-117.51.24h0a5.11,5.11,0,0,1-5.12-5.12v-28.7c0-14.84,11.61-25.22,28.23-25.22h160c16.36,0,28.23,10.75,28.23,25.55v99.1a28.25,28.25,0,0,1-28.23,28.22h-4.59v46.46a5.11,5.11,0,0,1-3.27,4.77,4.92,4.92,0,0,1-1.85.35Zm-27.69-43.19L354,315.66V277.34a5.12,5.12,0,0,1,5.11-5.11h9.71a18,18,0,0,0,18-18v-99.1c0-10.58-9-15.31-18-15.31h-160c-8.3,0-18,3.93-18,15v23.57l112.39-.23a28.26,28.26,0,0,1,28.24,28.23v84.47Z" fill="#2c4c76"/><path d="M326.31,206.37v99.1a23.11,23.11,0,0,1-23.1,23.11l-80,.34-46.88,51.55V328.92H143.17a23.11,23.11,0,0,1-23.11-23.11V206.7a23.39,23.39,0,0,1,23.11-23.43h160A23.11,23.11,0,0,1,326.31,206.37Z" fill="#fc6e51"/><path d="M176.31,385.59a5.09,5.09,0,0,1-5.12-5.12V334h-28a28.26,28.26,0,0,1-28.23-28.23V206.7a28.42,28.42,0,0,1,28.23-28.55h160a28.26,28.26,0,0,1,28.22,28.23v99.1a28.26,28.26,0,0,1-28.22,28.23l-77.75.33L180.1,383.92a5.08,5.08,0,0,1-3.78,1.67Zm-33.14-197.2a18.17,18.17,0,0,0-18,18.31v99.11a18,18,0,0,0,18,18h33.14a5.12,5.12,0,0,1,5.12,5.12v38.31l38-41.76a5.1,5.1,0,0,1,3.76-1.67l80-.34a18,18,0,0,0,18-18v-99.1a18,18,0,0,0-18-18Z" fill="#2c4c76"/><path d="M164,274.87a18.78,18.78,0,1,1,18.77-18.77A18.79,18.79,0,0,1,164,274.87Z" fill="#2c4c76"/><path d="M164,247.55a8.54,8.54,0,1,0,8.53,8.54,8.54,8.54,0,0,0-8.53-8.54Z" fill="#fff"/><path d="M223.18,274.87A18.78,18.78,0,1,1,242,256.1a18.8,18.8,0,0,1-18.78,18.77Z" fill="#2c4c76"/><path d="M223.18,247.55a8.54,8.54,0,1,0,8.54,8.54,8.55,8.55,0,0,0-8.54-8.54Z" fill="#fff"/><path d="M282.35,274.87a18.78,18.78,0,1,1,18.78-18.77,18.79,18.79,0,0,1-18.78,18.77Z" fill="#2c4c76"/><path d="M282.35,247.55a8.54,8.54,0,1,0,8.54,8.54,8.54,8.54,0,0,0-8.54-8.54Z" fill="#fff"/></g></g></svg>